<?xml version="1.0" ?><svg viewBox="0 0 32 32" xmlns="http://www.w3.org/2000/svg"><g data-name="Layer 72" id="Layer_72"><path d="M16.2,20.14a1,1,0,0,0-.13-.37.64.64,0,0,0-.25-.24.8.8,0,0,0-.39-.09.72.72,0,0,0-.4.1.75.75,0,0,0-.25.25,1.07,1.07,0,0,0-.14.38,2.15,2.15,0,0,0,0,.45,2.6,2.6,0,0,0,0,.5,1.14,1.14,0,0,0,.13.38.56.56,0,0,0,.25.23.75.75,0,0,0,.39.09.72.72,0,0,0,.4-.1.75.75,0,0,0,.25-.25,1.15,1.15,0,0,0,.14-.38,2.32,2.32,0,0,0,0-.46A2.49,2.49,0,0,0,16.2,20.14Zm0,0a1,1,0,0,0-.13-.37.64.64,0,0,0-.25-.24.8.8,0,0,0-.39-.09.72.72,0,0,0-.4.1.75.75,0,0,0-.25.25,1.07,1.07,0,0,0-.14.38,2.15,2.15,0,0,0,0,.45,2.6,2.6,0,0,0,0,.5,1.14,1.14,0,0,0,.13.38.56.56,0,0,0,.25.23.75.75,0,0,0,.39.09.72.72,0,0,0,.4-.1.75.75,0,0,0,.25-.25,1.15,1.15,0,0,0,.14-.38,2.32,2.32,0,0,0,0-.46A2.49,2.49,0,0,0,16.2,20.14ZM25,17H7a.92.92,0,0,0-1,.8v6.4A.92.92,0,0,0,7,25H25a.92.92,0,0,0,1-.8V17.8A.92.92,0,0,0,25,17ZM13.78,22.17s0,.06,0,.09l0,0,0,0H12.24a.18.18,0,0,1-.14-.06.23.23,0,0,1,0-.16V19a.09.09,0,0,1,0-.05l.06,0,.09,0h.32l.09,0,.06,0a.09.09,0,0,1,0,.05v2.73h1l0,.05s0,.05,0,.08Zm3-.82a1.56,1.56,0,0,1-.29.56,1.3,1.3,0,0,1-.48.35,1.69,1.69,0,0,1-.66.12,1.79,1.79,0,0,1-.64-.1,1.14,1.14,0,0,1-.46-.31,1.37,1.37,0,0,1-.27-.54,3,3,0,0,1-.1-.78,2.82,2.82,0,0,1,.1-.74,1.65,1.65,0,0,1,.29-.56,1.3,1.3,0,0,1,.48-.35,1.69,1.69,0,0,1,.66-.12,1.74,1.74,0,0,1,.63.1,1.07,1.07,0,0,1,.46.31,1.32,1.32,0,0,1,.28.54,2.8,2.8,0,0,1,.1.76A3,3,0,0,1,16.82,21.35ZM20,19.59s0,.07,0,.09l0,.05h0a.17.17,0,0,1-.1,0l-.19-.1a1.51,1.51,0,0,0-.28-.1,1.4,1.4,0,0,0-.38,0,.91.91,0,0,0-.41.09.93.93,0,0,0-.32.24,1.1,1.1,0,0,0-.2.37,1.53,1.53,0,0,0-.07.49,1.61,1.61,0,0,0,.07.51,1,1,0,0,0,.2.37.84.84,0,0,0,.31.22,1.06,1.06,0,0,0,.4.08.78.78,0,0,0,.22,0,.62.62,0,0,0,.19-.07v-.79h-.6s0,0-.06-.06a.49.49,0,0,1,0-.2.41.41,0,0,1,0-.12.15.15,0,0,1,0-.08.05.05,0,0,1,0-.05h1.17a.12.12,0,0,1,.05.05s0,0,0,.07a.22.22,0,0,1,0,.09V22a.51.51,0,0,1,0,.13.27.27,0,0,1-.11.1l-.2.07-.24.06-.25,0H18.9a2.06,2.06,0,0,1-.68-.11,1.27,1.27,0,0,1-.5-.34,1.46,1.46,0,0,1-.32-.54,2.27,2.27,0,0,1-.11-.72,2.19,2.19,0,0,1,.12-.75,1.37,1.37,0,0,1,.33-.56,1.28,1.28,0,0,1,.52-.36,1.81,1.81,0,0,1,.67-.12,2.17,2.17,0,0,1,.38,0l.29.07a.69.69,0,0,1,.21.1.81.81,0,0,1,.12.08.28.28,0,0,1,0,.11.84.84,0,0,1,0,.19A.49.49,0,0,1,20,19.59Zm-3.91.18a.64.64,0,0,0-.25-.24.8.8,0,0,0-.39-.09.72.72,0,0,0-.4.1.75.75,0,0,0-.25.25,1.07,1.07,0,0,0-.14.38,2.15,2.15,0,0,0,0,.45,2.6,2.6,0,0,0,0,.5,1.14,1.14,0,0,0,.13.38.56.56,0,0,0,.25.23.75.75,0,0,0,.39.09.72.72,0,0,0,.4-.1.75.75,0,0,0,.25-.25,1.15,1.15,0,0,0,.14-.38,2.32,2.32,0,0,0,0-.46,2.49,2.49,0,0,0,0-.49A1,1,0,0,0,16.07,19.77ZM23,26h2v1a2,2,0,0,1-2,2H9a2,2,0,0,1-2-2V26H9v1H23ZM9,16H7V5A2,2,0,0,1,9,3H20.41L25,7.59V16H23V9H19a1,1,0,0,1-1-1V5H9Zm7.2,4.14a1,1,0,0,0-.13-.37.64.64,0,0,0-.25-.24.8.8,0,0,0-.39-.09.72.72,0,0,0-.4.1.75.75,0,0,0-.25.25,1.07,1.07,0,0,0-.14.38,2.15,2.15,0,0,0,0,.45,2.6,2.6,0,0,0,0,.5,1.14,1.14,0,0,0,.13.38.56.56,0,0,0,.25.23.75.75,0,0,0,.39.09.72.72,0,0,0,.4-.1.75.75,0,0,0,.25-.25,1.15,1.15,0,0,0,.14-.38,2.32,2.32,0,0,0,0-.46A2.49,2.49,0,0,0,16.2,20.14Zm0,0a1,1,0,0,0-.13-.37.64.64,0,0,0-.25-.24.8.8,0,0,0-.39-.09.72.72,0,0,0-.4.1.75.75,0,0,0-.25.25,1.07,1.07,0,0,0-.14.38,2.15,2.15,0,0,0,0,.45,2.6,2.6,0,0,0,0,.5,1.14,1.14,0,0,0,.13.38.56.56,0,0,0,.25.23.75.75,0,0,0,.39.09.72.72,0,0,0,.4-.1.75.75,0,0,0,.25-.25,1.15,1.15,0,0,0,.14-.38,2.32,2.32,0,0,0,0-.46A2.49,2.49,0,0,0,16.2,20.14ZM25,17H7a.92.92,0,0,0-1,.8v6.4A.92.92,0,0,0,7,25H25a.92.92,0,0,0,1-.8V17.8A.92.92,0,0,0,25,17ZM13.78,22.17s0,.06,0,.09l0,0,0,0H12.24a.18.18,0,0,1-.14-.06.23.23,0,0,1,0-.16V19a.09.09,0,0,1,0-.05l.06,0,.09,0h.32l.09,0,.06,0a.09.09,0,0,1,0,.05v2.73h1l0,.05s0,.05,0,.08Zm3-.82a1.56,1.56,0,0,1-.29.56,1.3,1.3,0,0,1-.48.35,1.69,1.69,0,0,1-.66.12,1.79,1.79,0,0,1-.64-.1,1.14,1.14,0,0,1-.46-.31,1.37,1.37,0,0,1-.27-.54,3,3,0,0,1-.1-.78,2.82,2.82,0,0,1,.1-.74,1.65,1.65,0,0,1,.29-.56,1.3,1.3,0,0,1,.48-.35,1.69,1.69,0,0,1,.66-.12,1.74,1.74,0,0,1,.63.1,1.07,1.07,0,0,1,.46.31,1.32,1.32,0,0,1,.28.54,2.8,2.8,0,0,1,.1.76A3,3,0,0,1,16.82,21.35ZM20,19.59s0,.07,0,.09l0,.05h0a.17.17,0,0,1-.1,0l-.19-.1a1.51,1.51,0,0,0-.28-.1,1.4,1.4,0,0,0-.38,0,.91.91,0,0,0-.41.09.93.93,0,0,0-.32.24,1.1,1.1,0,0,0-.2.37,1.53,1.53,0,0,0-.07.49,1.61,1.61,0,0,0,.07.51,1,1,0,0,0,.2.37.84.84,0,0,0,.31.22,1.06,1.06,0,0,0,.4.08.78.78,0,0,0,.22,0,.62.62,0,0,0,.19-.07v-.79h-.6s0,0-.06-.06a.49.49,0,0,1,0-.2.41.41,0,0,1,0-.12.15.15,0,0,1,0-.08.05.05,0,0,1,0-.05h1.17a.12.12,0,0,1,.05.05s0,0,0,.07a.22.22,0,0,1,0,.09V22a.51.51,0,0,1,0,.13.27.27,0,0,1-.11.1l-.2.07-.24.06-.25,0H18.9a2.06,2.06,0,0,1-.68-.11,1.27,1.27,0,0,1-.5-.34,1.46,1.46,0,0,1-.32-.54,2.27,2.27,0,0,1-.11-.72,2.19,2.19,0,0,1,.12-.75,1.37,1.37,0,0,1,.33-.56,1.28,1.28,0,0,1,.52-.36,1.81,1.81,0,0,1,.67-.12,2.17,2.17,0,0,1,.38,0l.29.07a.69.69,0,0,1,.21.1.81.81,0,0,1,.12.08.28.28,0,0,1,0,.11.84.84,0,0,1,0,.19A.49.49,0,0,1,20,19.59Zm-3.91.18a.64.64,0,0,0-.25-.24.8.8,0,0,0-.39-.09.72.72,0,0,0-.4.1.75.75,0,0,0-.25.25,1.07,1.07,0,0,0-.14.38,2.15,2.15,0,0,0,0,.45,2.6,2.6,0,0,0,0,.5,1.14,1.14,0,0,0,.13.38.56.56,0,0,0,.25.23.75.75,0,0,0,.39.09.72.72,0,0,0,.4-.1.75.75,0,0,0,.25-.25,1.15,1.15,0,0,0,.14-.38,2.32,2.32,0,0,0,0-.46,2.49,2.49,0,0,0,0-.49A1,1,0,0,0,16.07,19.77Z"/></g></svg>