<?xml version="1.0" ?><!DOCTYPE svg  PUBLIC '-//W3C//DTD SVG 1.1//EN'  'http://www.w3.org/Graphics/SVG/1.1/DTD/svg11.dtd'><svg height="512px" style="enable-background:new 0 0 512 512;" version="1.1" viewBox="0 0 512 512" width="512px" xml:space="preserve" xmlns="http://www.w3.org/2000/svg" xmlns:xlink="http://www.w3.org/1999/xlink"><g id="C_-_60_x2C__career_x2C__Advancement_x2C__employee_x2C__ladder_x2C__promotion_x2C__staff_x2C__work"><g><path d="M166.568,394.58H76.366c-17.21,0-31.211,13.93-31.211,31.052v40.026h152.276v-40.383    C197.431,408.35,183.586,394.58,166.568,394.58z M130.258,452.442h-17.935v-17.85h17.935V452.442z M130.258,425.653h-17.935    v-17.85h17.935V425.653z"/><path d="M179.862,318.371v40.025h152.275v-40.376c0-16.926-13.844-30.694-30.86-30.694h-90.203    C193.863,287.326,179.862,301.252,179.862,318.371z M247.031,300.541h17.934v17.852h-17.934V300.541z M247.031,327.332h17.934    v17.85h-17.934V327.332z"/><path d="M390.883,126.002c22.079,0,40.041-17.867,40.041-39.829c0-21.963-17.962-39.831-40.041-39.831    c-22.08,0-40.046,17.868-40.046,39.831C350.837,108.136,368.803,126.002,390.883,126.002z"/><path d="M121.471,278.736c-22.081,0-40.046,17.867-40.046,39.829c0,21.964,17.965,39.831,40.046,39.831    c22.079,0,40.041-17.867,40.041-39.831C161.512,296.604,143.549,278.736,121.471,278.736z"/><path d="M216.132,211.305c0,21.963,17.964,39.832,40.044,39.832c22.079,0,40.042-17.868,40.042-39.832    c0-21.963-17.963-39.831-40.042-39.831C234.096,171.474,216.132,189.342,216.132,211.305z"/><path d="M435.982,162.186H345.78c-17.211,0-31.214,13.929-31.214,31.051v40.028h152.279V192.88    C466.846,175.955,453,162.186,435.982,162.186z M399.672,220.048h-17.937v-17.85h17.937V220.048z M399.672,193.258h-17.937V175.41    h17.937V193.258z"/><path d="M55.511,152.232l44.902,35.752l0.002,0.001c0.076,0.062,0.158,0.115,0.237,0.169c0.037,0.026,0.072,0.052,0.109,0.077    c0.087,0.057,0.175,0.11,0.264,0.16c0.047,0.027,0.093,0.051,0.141,0.076c0.094,0.049,0.188,0.096,0.285,0.138    c0.046,0.02,0.092,0.038,0.139,0.057c0.065,0.026,0.129,0.056,0.195,0.079c0.017,0.006,0.034,0.012,0.05,0.018    c0.17,0.057,0.344,0.104,0.52,0.141c0.035,0.007,0.071,0.011,0.105,0.017c0.003,0.001,0.006,0.001,0.009,0.002    c0.063,0.012,0.125,0.022,0.189,0.031c0.218,0.032,0.437,0.053,0.657,0.054c0.004,0,0.008,0.001,0.013,0.001c0,0,0.001,0,0.002,0    h0.001c0.001,0,0.001,0,0.001,0c0.001,0,0.002,0,0.003,0c0.003,0,0.008-0.001,0.013-0.001c0.221-0.001,0.439-0.022,0.657-0.054    c0.063-0.009,0.125-0.02,0.188-0.031c0.002-0.001,0.006-0.001,0.01-0.002c0.035-0.006,0.07-0.01,0.105-0.017    c0.175-0.038,0.349-0.083,0.519-0.141c0.018-0.005,0.034-0.012,0.051-0.018c0.065-0.022,0.13-0.053,0.195-0.079    c0.046-0.019,0.093-0.037,0.139-0.057c0.096-0.042,0.19-0.089,0.284-0.137c0.048-0.026,0.095-0.05,0.142-0.077    c0.09-0.05,0.177-0.103,0.264-0.16c0.038-0.024,0.073-0.051,0.11-0.077c0.08-0.055,0.16-0.108,0.237-0.169l0.001-0.001    l44.902-35.752c2.025-1.611,2.359-4.559,0.748-6.583c-1.612-2.024-4.561-2.36-6.584-0.747L108.017,174.6V81.744H264.98    c2.588,0,4.686-2.098,4.686-4.686s-2.098-4.686-4.686-4.686H103.331c-2.587,0-4.686,2.098-4.686,4.686V174.6l-37.298-29.698    c-2.023-1.612-4.972-1.277-6.583,0.747C53.151,147.673,53.486,150.621,55.511,152.232z"/><path d="M456.485,359.416l-44.903-35.75c-0.046-0.038-0.1-0.061-0.147-0.096c-0.112-0.082-0.226-0.157-0.343-0.229    c-0.086-0.052-0.167-0.109-0.255-0.155c-0.065-0.035-0.134-0.061-0.201-0.092c-0.116-0.054-0.234-0.1-0.355-0.145    c-0.095-0.036-0.188-0.076-0.285-0.105c-0.077-0.022-0.153-0.036-0.229-0.055c-0.117-0.028-0.234-0.05-0.353-0.068    c-0.103-0.017-0.203-0.039-0.307-0.048c-0.088-0.008-0.176-0.007-0.264-0.009c-0.061-0.003-0.117-0.019-0.179-0.019    c-0.057,0-0.109,0.015-0.164,0.017c-0.1,0.003-0.198,0.003-0.298,0.013c-0.093,0.009-0.183,0.03-0.272,0.045    c-0.12,0.02-0.239,0.038-0.355,0.065c-0.085,0.021-0.17,0.038-0.256,0.063c-0.089,0.026-0.174,0.065-0.262,0.098    c-0.122,0.045-0.242,0.091-0.359,0.145c-0.07,0.033-0.143,0.061-0.211,0.098c-0.085,0.045-0.163,0.102-0.245,0.15    c-0.121,0.073-0.237,0.149-0.351,0.233c-0.047,0.035-0.1,0.057-0.145,0.094l-0.084,0.065c0,0.001,0,0.002-0.002,0.002    l-44.813,35.683c-2.024,1.612-2.359,4.56-0.746,6.584c0.925,1.162,2.289,1.767,3.667,1.767c1.023,0,2.054-0.333,2.916-1.02    l37.294-29.696v92.848H247.02c-2.587,0-4.685,2.097-4.685,4.686c0,2.588,2.098,4.685,4.685,4.685h161.645    c2.588,0,4.686-2.097,4.686-4.685v-97.533l37.299,29.696c0.862,0.687,1.893,1.02,2.916,1.02c1.378,0,2.744-0.604,3.669-1.767    C458.845,363.977,458.51,361.029,456.485,359.416z"/></g></g><g id="Layer_1"/></svg>