<svg width="30" height="30" viewBox="0 0 30 30" fill="none" xmlns="http://www.w3.org/2000/svg">
<mask id="mask0_25_16" style="mask-type:alpha" maskUnits="userSpaceOnUse" x="0" y="0" width="30" height="30">
<rect width="30" height="30" fill="#D9D9D9"/>
</mask>
<g mask="url(#mask0_25_16)">
<path d="M8.75 17.5C8.0625 17.5 7.47396 17.2552 6.98438 16.7656C6.49479 16.276 6.25 15.6875 6.25 15C6.25 14.3125 6.49479 13.724 6.98438 13.2344C7.47396 12.7448 8.0625 12.5 8.75 12.5C9.4375 12.5 10.026 12.7448 10.5156 13.2344C11.0052 13.724 11.25 14.3125 11.25 15C11.25 15.6875 11.0052 16.276 10.5156 16.7656C10.026 17.2552 9.4375 17.5 8.75 17.5ZM8.75 22.5C6.66667 22.5 4.89583 21.7708 3.4375 20.3125C1.97917 18.8542 1.25 17.0833 1.25 15C1.25 12.9167 1.97917 11.1458 3.4375 9.6875C4.89583 8.22917 6.66667 7.5 8.75 7.5C10.1458 7.5 11.4115 7.84375 12.5469 8.53125C13.6823 9.21875 14.5833 10.125 15.25 11.25H26.25L30 15L24.375 20.625L21.875 18.75L19.375 20.625L16.7188 18.75H15.25C14.5833 19.875 13.6823 20.7812 12.5469 21.4688C11.4115 22.1562 10.1458 22.5 8.75 22.5ZM8.75 20C9.91667 20 10.9427 19.6458 11.8281 18.9375C12.7135 18.2292 13.3021 17.3333 13.5938 16.25H17.5L19.3125 17.5313L21.875 15.625L24.0938 17.3438L26.4375 15L25.1875 13.75H13.5938C13.3021 12.6667 12.7135 11.7708 11.8281 11.0625C10.9427 10.3542 9.91667 10 8.75 10C7.375 10 6.19792 10.4896 5.21875 11.4688C4.23958 12.4479 3.75 13.625 3.75 15C3.75 16.375 4.23958 17.5521 5.21875 18.5312C6.19792 19.5104 7.375 20 8.75 20Z" fill="#ADADAD"/>
</g>
</svg>
