<svg width="16" height="16" viewBox="0 0 16 16" fill="none" xmlns="http://www.w3.org/2000/svg">
<path d="M10.4275 14.723L4.20318 8.51715C4.1293 8.44327 4.07685 8.36324 4.04582 8.27704C4.01479 8.19085 3.99952 8.0985 4.00001 8C4.00001 7.90149 4.01553 7.80915 4.04656 7.72295C4.07758 7.63676 4.12979 7.55673 4.20318 7.48285L10.4275 1.25858C10.5998 1.08619 10.8153 1 11.0739 1C11.3325 1 11.5541 1.09235 11.7388 1.27704C11.9235 1.46174 12.0158 1.67722 12.0158 1.92348C12.0158 2.16974 11.9235 2.38522 11.7388 2.56992L6.30872 8L11.7388 13.4301C11.9112 13.6025 11.9974 13.815 11.9974 14.0677C11.9974 14.3203 11.905 14.5388 11.7203 14.723C11.5356 14.9077 11.3202 15 11.0739 15C10.8276 15 10.6121 14.9077 10.4275 14.723Z" fill="white"/>
</svg>
