<svg width="37" height="38" viewBox="0 0 37 38" fill="none" xmlns="http://www.w3.org/2000/svg">
<path fill-rule="evenodd" clip-rule="evenodd" d="M6.87847 7.30758C6.43956 7.74697 6.03712 8.28595 5.77691 8.75528C5.45009 9.3289 5.20882 9.95793 5.06336 10.6119L4.98766 11.0071C3.79475 17.0594 5.30974 22.4735 10.3109 27.439C13.5923 30.697 16.0805 32.0359 19.4875 32.5246C20.0396 32.6038 20.6162 32.6633 21.3024 32.7141L22.7131 32.7998C23.5004 32.8405 24.8122 32.9059 25.26 32.9314C25.8497 32.965 26.63 32.8522 27.6786 32.6065L27.8375 32.56C28.753 32.2366 29.5888 31.712 30.2887 31.0113C32.8499 28.4473 32.8499 24.2902 30.2887 21.7262L30.0605 21.5083C27.5846 19.2539 23.7985 19.2333 21.2995 21.4576L21.0033 21.7257L19.4198 23.3109C19.0728 23.6583 18.5264 23.7053 18.1253 23.4224C17.2907 22.8338 15.0733 20.6635 14.532 19.9239C14.2377 19.5218 14.2804 18.9649 14.6326 18.6125L16.0276 17.2168L16.147 17.1197L16.3241 16.9555C16.3561 16.9248 16.3886 16.8928 16.4209 16.8605C19.056 14.2225 19.056 9.94554 16.4209 7.30758C13.7858 4.66961 9.51355 4.66961 6.87847 7.30758ZM9.01883 9.45029C10.4718 7.99571 12.8276 7.99571 14.2806 9.45029C15.7335 10.9049 15.7335 13.2632 14.2806 14.7178C14.1907 14.8078 14.097 14.8926 13.9999 14.9721L12.4928 16.4693C11.0841 17.8789 10.9132 20.1063 12.0902 21.7147C12.8268 22.7213 15.2806 25.1229 16.382 25.8996L16.5945 26.0398C18.1753 27.0127 20.2325 26.7827 21.5602 25.4536L23.024 23.9877L23.0441 23.9775L23.1851 23.8395C24.5666 22.4874 26.7803 22.4994 28.1483 23.869C29.5274 25.2496 29.5274 27.488 28.1483 28.8686L27.913 29.0842C27.6698 29.2879 27.4035 29.4557 27.1196 29.5855L26.8906 29.6776L26.5015 29.7633L26.0906 29.8403C25.7815 29.8921 25.5575 29.9132 25.432 29.906L22.3586 29.7464L21.5443 29.6935L20.838 29.634C20.507 29.6021 20.2054 29.5664 19.9169 29.525C17.1893 29.1337 15.2833 28.1081 12.4424 25.2875C8.31453 21.189 7.03506 16.9495 7.87849 12.0205L7.96671 11.5413C8.04667 11.0505 8.19476 10.6276 8.41495 10.2411C8.54902 9.99946 8.78216 9.68722 9.01883 9.45029Z" fill="#FCFCFC"/>
</svg>
